<?xml version="1.0" encoding="UTF-8" standalone="no"?>
<!DOCTYPE svg PUBLIC "-//W3C//DTD SVG 1.1//EN" "http://www.w3.org/Graphics/SVG/1.1/DTD/svg11.dtd">
<svg width="100%" height="100%" viewBox="0 0 1024 252" version="1.1" xmlns="http://www.w3.org/2000/svg" xmlns:xlink="http://www.w3.org/1999/xlink" xml:space="preserve" xmlns:serif="http://www.serif.com/" style="fill-rule:evenodd;clip-rule:evenodd;stroke-linejoin:round;stroke-miterlimit:2;">
    <g transform="matrix(1,0,0,1,3.17149e-13,-386.368)">
        <g id="path3054-2-9" transform="matrix(0.324334,0,0,0.349007,-3.18435,382.813)">
            <path d="M378.219,10.25C371.667,10.593 365.25,12.229 359.344,15.062L101.375,138.281C87.86,144.736 78.027,156.965 74.688,171.469L11.063,448.313C8.086,461.2 10.5,474.749 17.75,485.844C18.623,487.18 19.562,488.473 20.563,489.719L199.094,711.719C208.449,723.346 222.658,730.128 237.656,730.125L523.969,730.063C538.962,730.073 553.17,723.303 562.531,711.688L741,489.656C750.351,478.028 753.863,462.783 750.531,448.281L686.813,171.406C683.465,156.914 673.632,144.698 660.125,138.25L402.156,15.031C394.708,11.473 386.475,9.829 378.219,10.25ZM378.59,62.229C385.649,61.872 392.686,63.279 399.053,66.321L619.776,171.716C631.339,177.238 639.754,187.701 642.611,200.11L697.142,436.978C700,449.393 696.994,462.447 688.985,472.401L536.286,662.359C528.275,672.297 516.118,678.089 503.29,678.08L258.322,678.136C245.488,678.139 233.33,672.335 225.326,662.387L72.57,472.458C71.716,471.387 70.915,470.275 70.171,469.127C63.97,459.64 61.902,448.056 64.441,437.035L118.888,200.167C121.745,187.757 130.158,177.294 141.722,171.772L362.417,66.321C367.479,63.903 372.979,62.511 378.59,62.229Z" style="fill:white;fill-rule:nonzero;"/>
        </g>
        <g transform="matrix(3.62342,0,0,3.89906,62.3443,583.158)">
            <text x="0px" y="0px" style="font-family:'RedHatDisplay-Bold', 'Red Hat Display';font-weight:700;font-size:50px;fill:white;">k     o     b     s</text>
        </g>
    </g>
</svg>
