<?xml version="1.0" encoding="UTF-8" standalone="no"?>
<!DOCTYPE svg PUBLIC "-//W3C//DTD SVG 1.1//EN" "http://www.w3.org/Graphics/SVG/1.1/DTD/svg11.dtd">
<svg width="100%" height="100%" viewBox="0 0 4096 4096" version="1.1" xmlns="http://www.w3.org/2000/svg" xmlns:xlink="http://www.w3.org/1999/xlink" xml:space="preserve" xmlns:serif="http://www.serif.com/" style="fill-rule:evenodd;clip-rule:evenodd;stroke-linejoin:round;stroke-miterlimit:2;">
    <g transform="matrix(18.4925,0,0,18.4925,-78.8247,-19.8391)">
        <path d="M225.407,135.107L206.4,52.547C205.366,48.224 202.442,44.586 198.442,42.647L121.507,5.917C117.471,3.991 112.772,3.991 108.736,5.917L31.808,42.669C27.808,44.606 24.883,48.242 23.847,52.564L4.873,135.129C4.009,138.972 4.728,143.006 6.868,146.314C7.129,146.714 7.406,147.102 7.706,147.476L60.952,213.681C63.776,217.128 67.995,219.141 72.451,219.168L157.838,219.148C162.293,219.123 166.512,217.112 169.338,213.668L222.565,147.457C225.324,143.983 226.369,139.441 225.407,135.11L225.407,135.107ZM216.21,138.973C216.082,139.558 215.916,140.133 215.712,140.696C215.222,142.066 214.509,143.345 213.602,144.482L166.303,203.32L164.817,205.172C163.9,206.297 162.806,207.265 161.577,208.037C161.103,208.341 160.61,208.615 160.103,208.859C159.761,209.017 159.413,209.16 159.058,209.289C158.605,209.461 158.143,209.61 157.675,209.734C157.022,209.91 156.358,210.037 155.686,210.113C155.218,210.166 154.747,210.193 154.276,210.195L76.772,210.213L76.012,210.213C74.853,210.206 73.701,210.047 72.583,209.741C71.22,209.38 69.921,208.814 68.728,208.062C67.784,207.461 66.918,206.745 66.152,205.93C65.919,205.684 65.684,205.443 65.472,205.18L16.667,144.501C16.395,144.158 16.14,143.803 15.902,143.435C15.35,142.582 14.899,141.667 14.559,140.709C14.358,140.147 14.194,139.573 14.068,138.99C13.642,137.077 13.643,135.093 14.072,133.181L31.466,57.506C32.415,53.545 35.095,50.212 38.761,48.436L109.269,14.751C112.968,12.986 117.275,12.986 120.974,14.751L191.493,48.421C195.158,50.199 197.838,53.532 198.786,57.494L216.208,133.168C216.637,135.08 216.638,137.063 216.21,138.975L216.21,138.973Z" style="fill:white;fill-rule:nonzero;"/>
    </g>
    <g transform="matrix(21.6026,0,0,21.6026,4.73178,93.4841)">
        <path d="M167.563,43.099C166.553,39.867 164.129,37.241 161.099,35.625L99.488,6.133C97.872,5.325 96.054,5.123 94.438,5.123C92.822,5.123 91.004,5.123 89.388,5.527L27.777,35.221C24.746,36.635 22.524,39.261 21.716,42.695L6.566,109.155C5.96,112.589 6.768,116.023 8.788,118.851L51.411,171.574C53.835,173.998 57.269,175.614 60.703,175.816L128.577,175.816C132.213,176.22 135.647,174.604 137.869,171.574L180.492,118.851C182.512,116.023 183.32,112.589 182.916,109.155L167.563,43.099Z" style="fill:rgb(50,109,230);fill-rule:nonzero;"/>
    </g>
    <g transform="matrix(58.4007,0,0,58.4007,646.383,705.299)">
        <path d="M11.7,46C10.117,46 8.771,45.446 7.663,44.338C6.554,43.229 6,41.883 6,40.3C6,38.717 6.554,37.371 7.663,36.263C8.771,35.154 10.117,34.6 11.7,34.6C12.167,34.6 12.575,34.642 12.925,34.725C13.275,34.808 13.633,34.933 14,35.1L18.25,29.8C17.617,29.033 17.133,28.158 16.8,27.175C16.467,26.192 16.383,25.167 16.55,24.1L10.5,22.05C10,22.883 9.342,23.533 8.525,24C7.708,24.467 6.767,24.7 5.7,24.7C4.117,24.7 2.771,24.146 1.663,23.038C0.554,21.929 0,20.583 0,19C0,17.417 0.554,16.071 1.663,14.963C2.771,13.854 4.117,13.3 5.7,13.3C7.283,13.3 8.629,13.854 9.738,14.963C10.846,16.071 11.4,17.417 11.4,19L11.4,19.2L17.5,21.3C18.1,20.233 18.825,19.417 19.675,18.85C20.525,18.283 21.467,17.883 22.5,17.65L22.5,11.2C21.2,10.833 20.175,10.117 19.425,9.05C18.675,7.983 18.3,6.867 18.3,5.7C18.3,4.117 18.854,2.771 19.963,1.662C21.071,0.554 22.417,0 24,0C25.583,0 26.929,0.554 28.038,1.662C29.146,2.771 29.7,4.117 29.7,5.7C29.7,6.867 29.317,7.983 28.55,9.05C27.783,10.117 26.767,10.833 25.5,11.2L25.5,17.65C26.533,17.883 27.483,18.283 28.35,18.85C29.217,19.417 29.95,20.233 30.55,21.3L36.6,19.2L36.6,19C36.6,17.417 37.154,16.071 38.263,14.963C39.371,13.854 40.717,13.3 42.3,13.3C43.883,13.3 45.229,13.854 46.338,14.963C47.446,16.071 48,17.417 48,19C48,20.583 47.446,21.929 46.338,23.038C45.229,24.146 43.883,24.7 42.3,24.7C41.233,24.7 40.283,24.467 39.45,24C38.617,23.533 37.967,22.883 37.5,22.05L31.45,24.1C31.617,25.167 31.542,26.192 31.225,27.175C30.908,28.158 30.417,29.033 29.75,29.8L34,35.1C34.367,34.933 34.725,34.808 35.075,34.725C35.425,34.642 35.826,34.6 36.278,34.6C37.893,34.6 39.25,35.154 40.35,36.263C41.45,37.371 42,38.717 42,40.3C42,41.883 41.446,43.229 40.338,44.338C39.229,45.446 37.883,46 36.3,46C34.717,46 33.371,45.446 32.263,44.338C31.154,43.229 30.6,41.883 30.6,40.3C30.6,39.633 30.692,39.033 30.875,38.5C31.058,37.967 31.317,37.45 31.65,36.95L27.4,31.65C26.329,32.217 25.186,32.5 23.972,32.5C22.757,32.5 21.617,32.217 20.55,31.65L16.35,37C16.683,37.5 16.942,38.008 17.125,38.525C17.308,39.042 17.4,39.633 17.4,40.3C17.4,41.883 16.846,43.229 15.738,44.338C14.629,45.446 13.283,46 11.7,46ZM5.702,21.7C6.467,21.7 7.108,21.441 7.625,20.923C8.142,20.405 8.4,19.764 8.4,18.998C8.4,18.233 8.141,17.592 7.623,17.075C7.105,16.558 6.464,16.3 5.698,16.3C4.933,16.3 4.292,16.559 3.775,17.077C3.258,17.595 3,18.236 3,19.002C3,19.767 3.259,20.408 3.777,20.925C4.295,21.442 4.936,21.7 5.702,21.7ZM11.702,43C12.467,43 13.108,42.741 13.625,42.223C14.142,41.705 14.4,41.064 14.4,40.298C14.4,39.533 14.141,38.892 13.623,38.375C13.105,37.858 12.464,37.6 11.698,37.6C10.933,37.6 10.292,37.859 9.775,38.377C9.258,38.895 9,39.536 9,40.302C9,41.067 9.259,41.708 9.777,42.225C10.295,42.742 10.936,43 11.702,43ZM24.002,8.4C24.767,8.4 25.408,8.141 25.925,7.623C26.442,7.105 26.7,6.464 26.7,5.698C26.7,4.933 26.441,4.292 25.923,3.775C25.405,3.258 24.764,3 23.998,3C23.233,3 22.592,3.259 22.075,3.777C21.558,4.295 21.3,4.936 21.3,5.702C21.3,6.467 21.559,7.108 22.077,7.625C22.595,8.142 23.236,8.4 24.002,8.4ZM24.025,29.5C25.275,29.5 26.333,29.058 27.2,28.175C28.067,27.292 28.5,26.225 28.5,24.975C28.5,23.725 28.065,22.667 27.195,21.8C26.325,20.933 25.26,20.5 24,20.5C22.767,20.5 21.708,20.935 20.825,21.805C19.942,22.675 19.5,23.74 19.5,25C19.5,26.233 19.942,27.292 20.825,28.175C21.708,29.058 22.775,29.5 24.025,29.5ZM36.302,43C37.067,43 37.708,42.741 38.225,42.223C38.742,41.705 39,41.064 39,40.298C39,39.533 38.741,38.892 38.223,38.375C37.705,37.858 37.064,37.6 36.298,37.6C35.533,37.6 34.892,37.859 34.375,38.377C33.858,38.895 33.6,39.536 33.6,40.302C33.6,41.067 33.859,41.708 34.377,42.225C34.895,42.742 35.536,43 36.302,43ZM42.302,21.7C43.067,21.7 43.708,21.441 44.225,20.923C44.742,20.405 45,19.764 45,18.998C45,18.233 44.741,17.592 44.223,17.075C43.705,16.558 43.064,16.3 42.298,16.3C41.533,16.3 40.892,16.559 40.375,17.077C39.858,17.595 39.6,18.236 39.6,19.002C39.6,19.767 39.859,20.408 40.377,20.925C40.895,21.442 41.536,21.7 42.302,21.7Z" style="fill:white;fill-rule:nonzero;stroke:black;stroke-width:0.02px;"/>
    </g>
</svg>
